<svg width="33" height="33" viewBox="0 0 33 33" fill="none" xmlns="http://www.w3.org/2000/svg">
<g clip-path="url(#clip0_1_1777)">
<path d="M10.2164 29.4304C22.4682 29.4304 29.1713 19.2775 29.1713 10.4756C29.1713 10.1901 29.1649 9.89836 29.1522 9.61293C30.4562 8.66993 31.5815 7.5019 32.4752 6.16371C31.2608 6.70402 29.9715 7.05689 28.6512 7.21027C30.0413 6.37697 31.0822 5.0679 31.5809 3.52573C30.2731 4.30079 28.8429 4.84753 27.3515 5.14251C26.3467 4.07482 25.0181 3.36788 23.5712 3.131C22.1243 2.89411 20.6396 3.14047 19.3468 3.83198C18.0539 4.5235 17.0249 5.62165 16.4187 6.95666C15.8126 8.29167 15.6631 9.78919 15.9934 11.2177C13.3453 11.0848 10.7546 10.3969 8.38941 9.19852C6.02419 8.00017 3.93721 6.31815 2.26375 4.26149C1.41321 5.72792 1.15295 7.46319 1.53585 9.11461C1.91875 10.766 2.91609 12.2097 4.32517 13.1522C3.26732 13.1186 2.23264 12.8338 1.30662 12.3213V12.4038C1.30567 13.9427 1.83769 15.4344 2.81223 16.6254C3.78678 17.8164 5.1437 18.6332 6.65235 18.9369C5.67242 19.205 4.64394 19.2441 3.64649 19.0511C4.0722 20.3745 4.90048 21.5321 6.01573 22.3621C7.13098 23.1922 8.47756 23.6534 9.86753 23.6813C7.50777 25.5349 4.59278 26.5403 1.59205 26.5356C1.05989 26.5348 0.528263 26.5022 0 26.4379C3.04842 28.3936 6.59455 29.4323 10.2164 29.4304Z" fill="black"/>
</g>
<defs>
<clipPath id="clip0_1_1777">
<rect width="32.4752" height="32.4752" fill="white"/>
</clipPath>
</defs>
</svg>
