<svg width="71" height="72" viewBox="0 0 71 72" fill="none" xmlns="http://www.w3.org/2000/svg">
<path d="M27.3047 60.4491H67.4609V44.0702H27.3047V60.4491ZM3.51465 34.1766H43.6738V17.7987H3.51465V34.1766ZM49.0674 7.94031H56.5488V3.87488H49.0674V7.94031ZM14.4688 7.92566H45.7432V3.86414H14.4688V7.92566ZM70.7529 62.5624L70.7285 62.6132C70.523 63.0437 70.2381 63.3384 69.877 63.5194C69.6105 63.653 69.3141 63.7196 68.9971 63.7421L68.6738 63.7509C65.9051 63.7162 63.1377 63.7382 60.3643 63.7382H59.8135C59.8109 65.5383 59.7838 67.262 59.8291 68.9862V68.9872C59.8407 69.4331 59.7785 69.8396 59.6006 70.1952C59.4209 70.5544 59.1327 70.842 58.7275 71.0643L58.6709 71.0956H12.3301L12.2744 71.0653C11.8643 70.8419 11.5812 70.551 11.4053 70.1903C11.2317 69.8345 11.1709 69.4285 11.1719 68.9872C11.1938 58.67 11.1865 48.3528 11.1865 38.035V37.4628C8.12628 37.4629 5.15621 37.4645 2.18848 37.4628V37.4618C1.55924 37.4617 1.05448 37.3372 0.713867 36.9921C0.374008 36.6477 0.251018 36.1388 0.250977 35.5048C0.24915 29.15 0.24915 22.795 0.250977 16.4403L0.257812 16.2157C0.286422 15.7055 0.418544 15.2893 0.713867 14.995C1.05117 14.6589 1.54811 14.534 2.16309 14.5331H11.1865V13.9813C11.1865 10.2207 11.2066 6.46617 11.1719 2.70886C11.168 2.26668 11.2281 1.85933 11.4023 1.50281C11.5789 1.1417 11.8634 0.851091 12.2744 0.628784L12.3301 0.598511H58.3555V0.420776L58.7246 0.621948C59.1349 0.845375 59.4186 1.13672 59.5947 1.49792C59.7685 1.85423 59.8291 2.26043 59.8271 2.70203C59.7998 8.26106 59.8125 13.8182 59.8125 19.3788C59.8125 19.5435 59.8214 19.7517 59.8018 19.9481C59.7213 20.8127 59.0624 21.454 58.2119 21.4628C57.389 21.4709 56.7168 20.8934 56.6025 20.0673L56.5879 19.8983C56.5565 19.164 56.5762 18.4199 56.5762 17.7001V11.2655H14.4717V14.5282H44.8359C45.572 14.5282 46.1357 14.6255 46.499 14.9852C46.8629 15.3458 46.9609 15.9057 46.9609 16.6356V35.3641C46.9609 36.0778 46.8559 36.6299 46.499 36.9911C46.1412 37.3532 45.5927 37.4608 44.8848 37.4608H14.4717V67.8173H56.5439V63.7343H26.2441C25.4547 63.7343 24.8634 63.6495 24.4932 63.2733C24.1244 62.8985 24.041 62.3015 24.041 61.5009V42.8417C24.041 42.1567 24.1555 41.6199 24.5146 41.2655C24.873 40.9122 25.4152 40.7997 26.1084 40.7997H56.5801V40.3026C56.5801 37.6598 56.5766 35.0156 56.582 32.3739C56.5821 31.9315 56.6767 31.5465 56.8799 31.2401C57.0852 30.9307 57.388 30.7223 57.7637 30.6112L57.9619 30.5643C58.4226 30.4862 58.8607 30.6152 59.1953 30.8983C59.5753 31.2199 59.8074 31.7271 59.8105 32.3202C59.8215 34.9641 59.8145 37.6094 59.8145 40.2499V40.8016H61.5244C63.8969 40.8016 66.2628 40.827 68.6289 40.787C69.0705 40.7793 69.477 40.8409 69.835 41.0145C70.1966 41.1901 70.4914 41.4716 70.7207 41.8739L70.7529 41.9315V62.5624Z" fill="#FD6F00" stroke="#FD6F00" stroke-width="0.5"/>
<path d="M58.2974 24.1339C59.2491 24.1869 60.0334 24.9693 60.0571 25.9435C60.0822 26.9727 59.2253 27.8545 58.1948 27.8546C57.2 27.8546 56.3596 27.0269 56.3345 26.0343C56.3094 25.0347 57.1036 24.1805 58.105 24.1329L58.2974 24.1339Z" fill="#FD6F00" stroke="#FD6F00"/>
<path d="M13.21 21.3404C14.7351 21.3404 16.2584 21.335 17.7835 21.3423C18.8612 21.3477 19.3616 21.8527 19.3653 22.9391C19.3726 24.9644 19.3726 26.9878 19.3653 29.0131C19.3616 30.1251 18.852 30.6318 17.7233 30.6337C14.7205 30.6391 11.7178 30.6391 8.71322 30.6337C7.58262 30.6318 7.06755 30.1269 7.0639 29.0204C7.05659 26.9951 7.05842 24.9717 7.0639 22.9464C7.06755 21.8308 7.56618 21.3441 8.70591 21.3404C10.2073 21.335 11.7086 21.3404 13.21 21.3404ZM16.5945 27.8701V24.1167H9.84746V27.8701H16.5945Z" fill="black"/>
<path d="M31.6849 24.0729C29.5004 24.0729 27.3178 24.0729 25.1333 24.0729C24.9507 24.0729 24.768 24.0802 24.5872 24.0693C23.7653 24.0146 23.1881 23.4331 23.2009 22.6784C23.2119 21.9146 23.789 21.3568 24.631 21.3458C25.8822 21.3294 27.1333 21.3404 28.3845 21.3404C31.5918 21.3404 34.7991 21.3404 38.0064 21.3404C39.5077 21.3404 40.1598 21.7615 40.1434 22.7203C40.1269 23.6518 39.4712 24.0729 38.0319 24.0729C35.9169 24.0729 33.8018 24.0729 31.6849 24.0729Z" fill="black"/>
<path d="M31.705 27.9048C34.0484 27.9048 36.3918 27.8957 38.7333 27.9103C39.5681 27.9157 40.1434 28.4936 40.1434 29.261C40.1434 29.9902 39.5881 30.5626 38.8046 30.6301C38.6238 30.6446 38.4411 30.6373 38.2585 30.6373C33.8676 30.6373 29.4786 30.6373 25.0877 30.6373C24.9507 30.6373 24.8137 30.641 24.6786 30.6373C23.8037 30.6027 23.2028 30.0431 23.2009 29.2665C23.2009 28.4772 23.7909 27.9139 24.6749 27.9103C27.0183 27.8993 29.3598 27.9066 31.7032 27.9084L31.705 27.9048Z" fill="black"/>
<path d="M36.9799 56.9055C35.4548 56.9055 33.9315 56.9128 32.4064 56.9037C31.3707 56.8982 30.8593 56.3842 30.8538 55.3451C30.8447 53.298 30.8465 51.2508 30.8538 49.2019C30.8575 48.1336 31.378 47.6141 32.4557 47.6123C35.4822 47.605 38.5068 47.605 41.5333 47.6123C42.6456 47.6141 43.1516 48.13 43.1552 49.2511C43.1607 51.2763 43.1625 53.2998 43.1552 55.325C43.1516 56.3987 42.6401 56.8982 41.5534 56.9037C40.0283 56.911 38.505 56.9037 36.9799 56.9037V56.9055ZM33.6173 54.1219H40.3643V50.3813H33.6173V54.1219Z" fill="black"/>
<path d="M55.4548 50.3449C53.1808 50.3449 50.905 50.3486 48.631 50.3449C47.6192 50.3431 47.0091 49.84 46.9909 49.0124C46.9726 48.1702 47.6192 47.6142 48.6457 47.6142C53.1954 47.6105 57.7452 47.6105 62.2931 47.6142C63.2941 47.6142 63.9151 48.1355 63.9333 48.9577C63.9516 49.8072 63.3196 50.3431 62.2804 50.3449C60.0064 50.3486 57.7306 50.3449 55.4566 50.3449H55.4548Z" fill="black"/>
<path d="M55.4693 56.9074C53.1954 56.9074 50.9196 56.9092 48.6456 56.9074C47.6008 56.9074 46.9744 56.3751 46.9908 55.522C47.0072 54.7053 47.6355 54.1767 48.6292 54.1767C53.2008 54.173 57.7725 54.173 62.346 54.1767C63.241 54.1767 63.8218 54.6306 63.9241 55.3689C64.0136 56.0069 63.6027 56.665 62.9671 56.8418C62.7314 56.9074 62.4721 56.9056 62.2237 56.9056C59.9716 56.9092 57.7196 56.9074 55.4675 56.9074H55.4693Z" fill="black"/>
</svg>
